<svg id="Layer_1" data-name="Layer 1" xmlns="http://www.w3.org/2000/svg" xmlns:xlink="http://www.w3.org/1999/xlink" viewBox="0 0 247.91 70.7"><defs><style>.cls-1{fill:none;}.cls-2{clip-path:url(#clip-path);}.cls-3{fill:#974747;}.cls-4{fill:url(#linear-gradient);}</style><clipPath id="clip-path"><rect class="cls-1" width="247.91" height="70.7"/></clipPath><linearGradient id="linear-gradient" x1="87.7" y1="72.89" x2="228.12" y2="-2.19" gradientUnits="userSpaceOnUse"><stop offset="0.18" stop-color="#d69e9e" stop-opacity="0"/><stop offset="0.39" stop-color="#d69e9e" stop-opacity="0.7"/><stop offset="0.49" stop-color="#d69e9e"/><stop offset="0.54" stop-color="#d69e9e" stop-opacity="0.85"/><stop offset="0.66" stop-color="#d69e9e" stop-opacity="0.46"/><stop offset="0.78" stop-color="#d69e9e" stop-opacity="0"/></linearGradient></defs><g class="cls-2"><path class="cls-3" d="M4.57,54,15.13,23.35h5.68L31.37,54H26l-2.72-8.49H12.5L9.78,54ZM17.78,28.66l-4.14,13h8.47L18,28.66Z"/><path class="cls-3" d="M56.22,54h-4.9v-4h-.27c-.65,1.91-2.85,4.31-7,4.31-4.74,0-8-2.24-8-7.82V30.27h5v15c0,3.78,2.22,4.9,4.74,4.9a5.31,5.31,0,0,0,5.5-5.26V30.27h5Z"/><path class="cls-3" d="M71.9,29.87c5.21,0,8.78,2.61,8.78,6.81H76.19c-.13-1.55-1.55-3.17-4.43-3.17-2.53,0-4.26,1.19-4.26,3.23,0,2.63,3.37,3,6,3.44,4.43.77,7.85,2.18,7.85,6.68,0,4.78-3.8,7.57-9.82,7.57-5.64,0-9.26-2.54-9.26-6.79h4.85c.27,1.91,1.64,3.15,4.65,3.15,3.35,0,4.72-1.51,4.72-3.35,0-2.47-2.72-2.88-5.91-3.48-4.33-.9-7.86-2.11-7.86-6.77C62.71,32,67.07,29.87,71.9,29.87Z"/><path class="cls-3" d="M89,24.5h4.88v5.93H99.2v3.91H93.87V47c0,2.58,1,3.3,3.64,3.3.67,0,1.57,0,2-.09V54a29,29,0,0,1-3.19.2c-5.78,0-7.35-2.07-7.35-6.83v-13H85.31V30.43H89Z"/><path class="cls-3" d="M108.36,20.07a3,3,0,1,1,0,6.07,3,3,0,1,1,0-6.07Zm-2.45,10.2h5V54h-5Z"/><path class="cls-3" d="M118.9,30.27h4.9v4.27H124c.61-1.86,2.34-4.63,7.15-4.63s8,2.66,8,8.07V54h-5V39.44c0-3.62-1.89-5.28-4.7-5.28-3.68,0-5.61,2.83-5.61,6.67V54h-5Z"/><path class="cls-3" d="M187.81,46.05a4.08,4.08,0,0,0,4.34,4c3.07,0,4.65-1.84,4.65-5.19V23.35h5.12V44.63c0,6.45-3.64,10-9.75,10-6,0-9.3-3.77-9.3-8.58Z"/><path class="cls-3" d="M212.52,20.07a3,3,0,1,1,0,6.07,3,3,0,1,1,0-6.07Zm-2.45,10.2h5V54h-5Z"/><path class="cls-3" d="M223.06,30.27H228v4.27h.24c.61-1.86,2.34-4.63,7.15-4.63s8,2.66,8,8.07V54h-5V39.44c0-3.62-1.89-5.28-4.7-5.28-3.68,0-5.61,2.83-5.61,6.67V54h-5Z"/><path class="cls-4" d="M204,74.6A33.76,33.76,0,0,1,182.9,64.1a31.11,31.11,0,0,1,0-42.16A33.76,33.76,0,0,1,204,11.44a.46.46,0,0,0,0-.92A29.78,29.78,0,0,0,191.12,12a32.05,32.05,0,0,0-11.38,6.82,32.6,32.6,0,0,0-7.11,9.53c-.27-1-.57-2-.89-3A57.29,57.29,0,0,0,168.25,17,45.37,45.37,0,0,1,186.09,2.15,49,49,0,0,1,203-2.31a.46.46,0,0,0,.42-.42.46.46,0,0,0-.42-.5A43.63,43.63,0,0,0,184.9-.71c-1.44.55-2.85,1.22-4.28,1.83s-2.73,1.49-4.1,2.24S174,5.14,172.67,6s-2.38,2-3.58,3.06a42.61,42.61,0,0,0-3.34,3.51,55.27,55.27,0,0,0-9.11-11,56.43,56.43,0,0,0-11.4-8.33A54.74,54.74,0,0,0,132.15-12a56.91,56.91,0,0,0-27.84-.17,59.09,59.09,0,0,0-13,5A56.08,56.08,0,0,0,80,1,54.79,54.79,0,0,0,65.18,23.87a.47.47,0,0,0,.25.58A.46.46,0,0,0,66,24.2h0A55.88,55.88,0,0,1,81.7,2.9a54.34,54.34,0,0,1,11-7.17,55.2,55.2,0,0,1,12.39-4.26,57.29,57.29,0,0,1,13-1.12,51.57,51.57,0,0,1,12.84,2,52.91,52.91,0,0,1,31.42,24.75,49,49,0,0,0-4,7.4,47,47,0,0,0-2.54,7.88,38.85,38.85,0,0,0-8.71-15.92l-1.66-1.79-1.82-1.63-.91-.81c-.31-.27-.65-.49-1-.74l-2-1.44c-.66-.48-1.38-.85-2.07-1.28A20.11,20.11,0,0,0,135.6,7.6a33.8,33.8,0,0,0-4.47-1.92,39.75,39.75,0,0,0-19.08-2,38.25,38.25,0,0,0-17.62,7.2,38.72,38.72,0,0,0-12,14.53.46.46,0,0,0,.82.42A39.42,39.42,0,0,1,95.57,12.52a36.82,36.82,0,0,1,8.07-4.07,37.67,37.67,0,0,1,8.75-2.07A36.83,36.83,0,0,1,130,8.74,37.88,37.88,0,0,1,134,10.59,17.48,17.48,0,0,1,136,11.71c.63.41,1.29.76,1.88,1.2l1.77,1.35c.29.23.6.44.88.68l.82.76,1.63,1.51,1.48,1.65A37.08,37.08,0,0,1,152.52,52a39.9,39.9,0,0,1-22.34,26.7.47.47,0,0,0,.32.87,36.75,36.75,0,0,0,16.18-9.87,38.28,38.28,0,0,0,9.17-16,44.75,44.75,0,0,0,2.53,7.78,47.78,47.78,0,0,0,4.27,7.78,60.41,60.41,0,0,1-4.28,6.78,60.24,60.24,0,0,1-20,17.11h0a.46.46,0,0,0-.22.55.47.47,0,0,0,.59.29A52.1,52.1,0,0,0,161.53,78.6a59.52,59.52,0,0,0,4.05-5.41,44.58,44.58,0,0,0,3.53,3.74,45.79,45.79,0,0,0,15.8,9.81A43.73,43.73,0,0,0,203,89.27a.46.46,0,0,0,0-.92,48.63,48.63,0,0,1-16.94-4.44,46.18,46.18,0,0,1-13.91-10,44.21,44.21,0,0,1-4-4.94c.37-.7.73-1.41,1.07-2.13.48-1.08,1-2.13,1.44-3.23l1.24-3.33c.26-.85.5-1.7.74-2.56a32.38,32.38,0,0,0,18.5,16.4A29.94,29.94,0,0,0,204,75.53a.49.49,0,0,0,.41-.41A.47.47,0,0,0,204,74.6ZM168.45,52.43a51.22,51.22,0,0,1-3.31,11.62A44.61,44.61,0,0,1,165,22.32c.65,1.51,1.26,3,1.76,4.61a51.75,51.75,0,0,1,2.49,15.26c0,.28,0,.56,0,.83s0,.48,0,.72A55,55,0,0,1,168.45,52.43Z"/></g></svg>