<svg id="Layer_1" data-name="Layer 1" xmlns="http://www.w3.org/2000/svg" xmlns:xlink="http://www.w3.org/1999/xlink" viewBox="0 0 247.91 107.84"><defs><style>.cls-1{fill:#0e0f13;}.cls-2{fill:url(#linear-gradient);}</style><linearGradient id="linear-gradient" x1="87.7" y1="86.68" x2="228.12" y2="11.6" gradientUnits="userSpaceOnUse"><stop offset="0.18" stop-color="#d69e9e" stop-opacity="0"/><stop offset="0.39" stop-color="#d69e9e" stop-opacity="0.7"/><stop offset="0.49" stop-color="#d69e9e"/><stop offset="0.54" stop-color="#d69e9e" stop-opacity="0.85"/><stop offset="0.66" stop-color="#d69e9e" stop-opacity="0.46"/><stop offset="0.78" stop-color="#d69e9e" stop-opacity="0"/></linearGradient></defs><path class="cls-1" d="M4.57,71.77,15.13,41.1h5.68L31.37,71.77H26l-2.72-8.5H12.5l-2.72,8.5ZM17.78,46.4l-4.14,13h8.47L18,46.4Z"/><path class="cls-1" d="M56.22,71.77h-4.9v-4h-.27c-.65,1.91-2.85,4.31-7,4.31-4.74,0-8-2.24-8-7.81V48h5V63c0,3.78,2.22,4.9,4.74,4.9a5.31,5.31,0,0,0,5.5-5.26V48h5Z"/><path class="cls-1" d="M71.9,47.61c5.21,0,8.78,2.61,8.78,6.81H76.19c-.13-1.55-1.55-3.17-4.43-3.17-2.53,0-4.26,1.19-4.26,3.24,0,2.63,3.37,3,6,3.43,4.43.77,7.85,2.18,7.85,6.68,0,4.78-3.8,7.57-9.82,7.57-5.64,0-9.26-2.54-9.26-6.79h4.85c.27,1.91,1.64,3.15,4.65,3.15,3.35,0,4.72-1.51,4.72-3.35,0-2.47-2.72-2.87-5.91-3.48-4.33-.9-7.86-2.11-7.86-6.76C62.71,49.77,67.07,47.61,71.9,47.61Z"/><path class="cls-1" d="M89,42.24h4.88v5.93H99.2v3.91H93.87V64.69c0,2.58,1,3.3,3.64,3.3.67,0,1.57,0,2-.09v3.82a29,29,0,0,1-3.19.2c-5.78,0-7.35-2.06-7.35-6.83v-13H85.31V48.17H89Z"/><path class="cls-1" d="M108.36,37.81a3,3,0,1,1,0,6.07,3,3,0,1,1,0-6.07ZM105.91,48h5V71.77h-5Z"/><path class="cls-1" d="M118.9,48h4.9v4.26H124c.61-1.86,2.34-4.62,7.15-4.62s8,2.65,8,8.06v16h-5V57.18c0-3.61-1.89-5.28-4.7-5.28-3.68,0-5.61,2.83-5.61,6.68V71.77h-5Z"/><path class="cls-1" d="M187.81,63.79a4.08,4.08,0,0,0,4.34,4c3.07,0,4.65-1.84,4.65-5.19V41.1h5.12V62.37c0,6.45-3.64,10-9.75,10-6,0-9.3-3.77-9.3-8.58Z"/><path class="cls-1" d="M212.52,37.81a3,3,0,1,1,0,6.07,3,3,0,1,1,0-6.07ZM210.07,48h5V71.77h-5Z"/><path class="cls-1" d="M223.06,48H228v4.26h.24c.61-1.86,2.34-4.62,7.15-4.62s8,2.65,8,8.06v16h-5V57.18c0-3.61-1.89-5.28-4.7-5.28-3.68,0-5.61,2.83-5.61,6.68V71.77h-5Z"/><path class="cls-2" d="M204,88.39a33.76,33.76,0,0,1-21.08-10.5,31.11,31.11,0,0,1,0-42.16A33.66,33.66,0,0,1,204,25.23a.48.48,0,0,0,.41-.41.47.47,0,0,0-.41-.52,29.94,29.94,0,0,0-12.86,1.45,32.2,32.2,0,0,0-11.38,6.82,32.64,32.64,0,0,0-7.11,9.54c-.27-1-.57-2-.89-3a57.17,57.17,0,0,0-3.49-8.32,45.12,45.12,0,0,1,17.84-14.83A48.54,48.54,0,0,1,203,11.48a.47.47,0,0,0,.42-.43.46.46,0,0,0-.42-.49,43.47,43.47,0,0,0-18.12,2.52c-1.44.55-2.85,1.21-4.28,1.82s-2.73,1.5-4.1,2.25-2.57,1.78-3.85,2.68-2.38,2-3.58,3.05a44.4,44.4,0,0,0-3.34,3.52,55.33,55.33,0,0,0-9.11-11,56.81,56.81,0,0,0-11.4-8.33,54.3,54.3,0,0,0-13.09-5.24,56.67,56.67,0,0,0-27.84-.17,59.09,59.09,0,0,0-13,5A55.69,55.69,0,0,0,80,14.77,54.67,54.67,0,0,0,65.18,37.66a.46.46,0,0,0,.25.57A.47.47,0,0,0,66,38h0A55.8,55.8,0,0,1,81.7,16.69a54,54,0,0,1,11-7.18,56.22,56.22,0,0,1,12.39-4.26,57.86,57.86,0,0,1,13-1.12,52,52,0,0,1,12.84,2A52.66,52.66,0,0,1,153.19,19a53.27,53.27,0,0,1,9.2,11.88,49.62,49.62,0,0,0-4,7.41,47.21,47.21,0,0,0-2.54,7.87,38.91,38.91,0,0,0-8.71-15.92l-1.66-1.79-1.82-1.63-.91-.81c-.31-.26-.65-.49-1-.73l-2-1.45c-.66-.47-1.38-.85-2.07-1.28s-1.37-.87-2.12-1.19a35.12,35.12,0,0,0-4.47-1.91,39.63,39.63,0,0,0-19.08-2,38.24,38.24,0,0,0-17.62,7.19,38.87,38.87,0,0,0-12,14.53.47.47,0,0,0,.19.6.45.45,0,0,0,.63-.18A39.39,39.39,0,0,1,95.57,26.31a37.3,37.3,0,0,1,8.07-4.08,38.16,38.16,0,0,1,8.75-2.06A36.71,36.71,0,0,1,130,22.53,36,36,0,0,1,134,24.38,17.48,17.48,0,0,1,136,25.5c.63.4,1.29.75,1.88,1.2l1.77,1.35c.29.23.6.43.88.68l.82.76,1.63,1.5,1.48,1.66a37.07,37.07,0,0,1,8.11,33.17,40,40,0,0,1-22.34,26.7.46.46,0,0,0-.25.55.46.46,0,0,0,.57.31,36.73,36.73,0,0,0,16.18-9.86,38.28,38.28,0,0,0,9.17-16,45.31,45.31,0,0,0,2.53,7.78,48.2,48.2,0,0,0,4.27,7.78,62.28,62.28,0,0,1-4.28,6.78,60.35,60.35,0,0,1-20,17.11h0a.47.47,0,0,0,.37.85,52.21,52.21,0,0,0,22.75-15.44,59.37,59.37,0,0,0,4.05-5.4,46.06,46.06,0,0,0,19.33,13.54A43.74,43.74,0,0,0,203,103.06a.47.47,0,0,0,.42-.43.46.46,0,0,0-.42-.49,49.07,49.07,0,0,1-16.94-4.44,46.21,46.21,0,0,1-13.91-10,43.32,43.32,0,0,1-4-4.94c.37-.7.73-1.4,1.07-2.12.48-1.08,1-2.13,1.44-3.24L171.88,74c.26-.85.5-1.71.74-2.56a32.41,32.41,0,0,0,18.5,16.39A29.78,29.78,0,0,0,204,89.31a.46.46,0,0,0,0-.92ZM168.45,66.22a51.14,51.14,0,0,1-3.31,11.61A44.59,44.59,0,0,1,165,36.11c.65,1.51,1.26,3,1.76,4.61A51.64,51.64,0,0,1,169.23,56c0,.28,0,.55,0,.83s0,.48,0,.72A55,55,0,0,1,168.45,66.22Z"/></svg>