<svg id="Layer_1" data-name="Layer 1" xmlns="http://www.w3.org/2000/svg" xmlns:xlink="http://www.w3.org/1999/xlink" viewBox="0 0 247.91 116.67"><defs><style>.cls-1{fill:#974747;}.cls-2{fill:url(#linear-gradient);}</style><linearGradient id="linear-gradient" x1="87.7" y1="91.2" x2="228.12" y2="16.12" gradientUnits="userSpaceOnUse"><stop offset="0.18" stop-color="#d69e9e" stop-opacity="0"/><stop offset="0.39" stop-color="#d69e9e" stop-opacity="0.7"/><stop offset="0.49" stop-color="#d69e9e"/><stop offset="0.54" stop-color="#d69e9e" stop-opacity="0.85"/><stop offset="0.66" stop-color="#d69e9e" stop-opacity="0.46"/><stop offset="0.78" stop-color="#d69e9e" stop-opacity="0"/></linearGradient></defs><path class="cls-1" d="M4.57,76.29,15.13,45.62h5.68L31.37,76.29H26l-2.72-8.5H12.5l-2.72,8.5ZM17.78,50.92l-4.14,13h8.47L18,50.92Z"/><path class="cls-1" d="M56.22,76.29h-4.9v-4h-.27c-.65,1.91-2.85,4.32-7,4.32-4.74,0-8-2.25-8-7.82V52.54h5v15c0,3.78,2.22,4.9,4.74,4.9a5.31,5.31,0,0,0,5.5-5.26V52.54h5Z"/><path class="cls-1" d="M71.9,52.13c5.21,0,8.78,2.61,8.78,6.81H76.19c-.13-1.55-1.55-3.17-4.43-3.17C69.23,55.77,67.5,57,67.5,59c0,2.63,3.37,3,6,3.44,4.43.76,7.85,2.18,7.85,6.67,0,4.79-3.8,7.57-9.82,7.57-5.64,0-9.26-2.54-9.26-6.78h4.85c.27,1.91,1.64,3.14,4.65,3.14,3.35,0,4.72-1.5,4.72-3.35,0-2.47-2.72-2.87-5.91-3.48-4.33-.9-7.86-2.11-7.86-6.76C62.71,54.29,67.07,52.13,71.9,52.13Z"/><path class="cls-1" d="M89,46.76h4.88v5.93H99.2V56.6H93.87V69.21c0,2.58,1,3.3,3.64,3.3.67,0,1.57,0,2-.09v3.82a29,29,0,0,1-3.19.2c-5.78,0-7.35-2.06-7.35-6.83v-13H85.31V52.69H89Z"/><path class="cls-1" d="M108.36,42.34a3,3,0,1,1,0,6.06,3,3,0,1,1,0-6.06Zm-2.45,10.2h5V76.29h-5Z"/><path class="cls-1" d="M118.9,52.54h4.9v4.27H124c.61-1.87,2.34-4.63,7.15-4.63s8,2.65,8,8.06V76.29h-5V61.7c0-3.61-1.89-5.28-4.7-5.28-3.68,0-5.61,2.84-5.61,6.68V76.29h-5Z"/><path class="cls-1" d="M187.81,68.31a4.08,4.08,0,0,0,4.34,4c3.07,0,4.65-1.84,4.65-5.19V45.62h5.12V66.89c0,6.45-3.64,10-9.75,10-6,0-9.3-3.77-9.3-8.58Z"/><path class="cls-1" d="M212.52,42.34a3,3,0,1,1,0,6.06,3,3,0,1,1,0-6.06Zm-2.45,10.2h5V76.29h-5Z"/><path class="cls-1" d="M223.06,52.54H228v4.27h.24c.61-1.87,2.34-4.63,7.15-4.63s8,2.65,8,8.06V76.29h-5V61.7c0-3.61-1.89-5.28-4.7-5.28-3.68,0-5.61,2.84-5.61,6.68V76.29h-5Z"/><path class="cls-2" d="M204,92.91a33.76,33.76,0,0,1-21.08-10.5,31.11,31.11,0,0,1,0-42.16A33.76,33.76,0,0,1,204,29.75a.48.48,0,0,0,.41-.41.46.46,0,0,0-.41-.51,29.78,29.78,0,0,0-12.86,1.44,32.2,32.2,0,0,0-11.38,6.82,32.64,32.64,0,0,0-7.11,9.54c-.27-1-.57-2-.89-3a57.17,57.17,0,0,0-3.49-8.32,45.07,45.07,0,0,1,3.93-4.79,46.18,46.18,0,0,1,13.91-10A48.54,48.54,0,0,1,203,16a.46.46,0,0,0,0-.92A43.47,43.47,0,0,0,184.9,17.6c-1.44.55-2.85,1.21-4.28,1.82s-2.73,1.5-4.1,2.25-2.57,1.78-3.85,2.68-2.38,2-3.58,3.06a42.61,42.61,0,0,0-3.34,3.51,55,55,0,0,0-9.11-11,56.48,56.48,0,0,0-11.4-8.34,54.3,54.3,0,0,0-13.09-5.24,56.79,56.79,0,0,0-27.84-.17,59.09,59.09,0,0,0-13,5A55.69,55.69,0,0,0,80,19.29,54.67,54.67,0,0,0,65.18,42.18a.45.45,0,0,0,.25.57.47.47,0,0,0,.61-.24h0A55.8,55.8,0,0,1,81.7,21.21a54,54,0,0,1,11-7.18,56.22,56.22,0,0,1,12.39-4.26,57.86,57.86,0,0,1,13-1.12,52,52,0,0,1,12.84,2,52.91,52.91,0,0,1,31.42,24.75,49,49,0,0,0-4,7.4,47.21,47.21,0,0,0-2.54,7.87,38.91,38.91,0,0,0-8.71-15.92L145.45,33l-1.82-1.62-.91-.82c-.31-.26-.65-.48-1-.73l-2-1.44c-.66-.48-1.38-.86-2.07-1.28a22.16,22.16,0,0,0-2.12-1.2A35.12,35.12,0,0,0,131.13,24a39.63,39.63,0,0,0-19.08-2,38.35,38.35,0,0,0-17.62,7.19,38.87,38.87,0,0,0-12,14.53.46.46,0,0,0,.19.6.45.45,0,0,0,.63-.18A39.39,39.39,0,0,1,95.57,30.83a36.82,36.82,0,0,1,8.07-4.07,37.67,37.67,0,0,1,8.75-2.07A36.71,36.71,0,0,1,130,27.05,36,36,0,0,1,134,28.9,17.48,17.48,0,0,1,136,30c.63.4,1.29.75,1.88,1.2l1.77,1.35c.29.23.6.43.88.68l.82.76,1.63,1.51,1.48,1.65a37.07,37.07,0,0,1,8.11,33.17A39.92,39.92,0,0,1,130.18,97a.46.46,0,0,0,.32.86A36.64,36.64,0,0,0,146.68,88a38.28,38.28,0,0,0,9.17-16,45.31,45.31,0,0,0,2.53,7.78,47.78,47.78,0,0,0,4.27,7.78,61.33,61.33,0,0,1-4.28,6.78,60.35,60.35,0,0,1-20,17.11h0a.45.45,0,0,0-.22.55.47.47,0,0,0,.59.29,52.19,52.19,0,0,0,22.75-15.43,59.52,59.52,0,0,0,4.05-5.41,44.58,44.58,0,0,0,3.53,3.74,45.77,45.77,0,0,0,15.8,9.8A43.58,43.58,0,0,0,203,107.58a.47.47,0,0,0,.42-.42.46.46,0,0,0-.42-.5,49.07,49.07,0,0,1-16.94-4.44,46.35,46.35,0,0,1-13.91-10,44.31,44.31,0,0,1-4-5c.37-.7.73-1.4,1.07-2.12.48-1.08,1-2.13,1.44-3.24l1.24-3.32c.26-.85.5-1.71.74-2.56a32.33,32.33,0,0,0,7.12,9.57,31.91,31.91,0,0,0,11.38,6.82A29.63,29.63,0,0,0,204,93.83a.46.46,0,0,0,0-.92ZM168.45,70.74a51,51,0,0,1-3.31,11.61A44.59,44.59,0,0,1,165,40.63c.65,1.51,1.26,3,1.76,4.61a51.64,51.64,0,0,1,2.49,15.26c0,.28,0,.55,0,.83s0,.48,0,.72A55,55,0,0,1,168.45,70.74Z"/></svg>